<svg width="64" height="64" viewBox="0 0 64 64" fill="none" xmlns="http://www.w3.org/2000/svg">
<g filter="url(#filter0_d)">
<circle cx="32" cy="31" r="12" fill="white"/>
<circle cx="32" cy="31" r="11.5" stroke="#CCCCCC"/>
</g>
<path d="M33.1667 31C33.1667 30.3583 32.6417 29.8333 32 29.8333C31.3583 29.8333 30.8333 30.3583 30.8333 31C30.8333 31.6417 31.3583 32.1667 32 32.1667C32.6417 32.1667 33.1667 31.6417 33.1667 31ZM32 25.75C29.1008 25.75 26.75 28.1008 26.75 31H25L27.3333 33.3333L29.6667 31H27.9167C27.9167 28.7425 29.7425 26.9167 32 26.9167C34.2575 26.9167 36.0833 28.7425 36.0833 31C36.0833 33.2575 34.2575 35.0833 32 35.0833C31.1192 35.0833 30.3025 34.7975 29.6317 34.325L28.8033 35.165C29.69 35.8417 30.7983 36.25 32 36.25C34.8992 36.25 37.25 33.8992 37.25 31C37.25 28.1008 34.8992 25.75 32 25.75Z" fill="#555555"/>
<defs>
<filter id="filter0_d" x="0" y="0" width="64" height="64" filterUnits="userSpaceOnUse" color-interpolation-filters="sRGB">
<feFlood flood-opacity="0" result="BackgroundImageFix"/>
<feColorMatrix in="SourceAlpha" type="matrix" values="0 0 0 0 0 0 0 0 0 0 0 0 0 0 0 0 0 0 127 0"/>
<feOffset dy="1"/>
<feGaussianBlur stdDeviation="10"/>
<feColorMatrix type="matrix" values="0 0 0 0 0 0 0 0 0 0 0 0 0 0 0 0 0 0 0.1 0"/>
<feBlend mode="normal" in2="BackgroundImageFix" result="effect1_dropShadow"/>
<feBlend mode="normal" in="SourceGraphic" in2="effect1_dropShadow" result="shape"/>
</filter>
</defs>
</svg>
