<svg width="64" height="64" viewBox="0 0 64 64" fill="none" xmlns="http://www.w3.org/2000/svg">
<g filter="url(#filter0_d)">
<circle cx="32" cy="31" r="12" fill="white"/>
<circle cx="32" cy="31" r="11.5" stroke="#CCCCCC"/>
</g>
<path d="M37.2 27H27.4C26.63 27 26 27.63 26 28.4V32.6C26 33.37 26.63 34 27.4 34H37.2C37.97 34 38.6 33.37 38.6 32.6V28.4C38.6 27.63 37.97 27 37.2 27ZM37.9 31.9C37.9 32.32 37.62 32.6 37.2 32.6H27.4C26.98 32.6 26.7 32.32 26.7 31.9V28.4C26.7 27.98 26.98 27.7 27.4 27.7H37.2C37.62 27.7 37.9 27.98 37.9 28.4V31.9Z" fill="#555555"/>
<defs>
<filter id="filter0_d" x="0" y="0" width="64" height="64" filterUnits="userSpaceOnUse" color-interpolation-filters="sRGB">
<feFlood flood-opacity="0" result="BackgroundImageFix"/>
<feColorMatrix in="SourceAlpha" type="matrix" values="0 0 0 0 0 0 0 0 0 0 0 0 0 0 0 0 0 0 127 0"/>
<feOffset dy="1"/>
<feGaussianBlur stdDeviation="10"/>
<feColorMatrix type="matrix" values="0 0 0 0 0 0 0 0 0 0 0 0 0 0 0 0 0 0 0.1 0"/>
<feBlend mode="normal" in2="BackgroundImageFix" result="effect1_dropShadow"/>
<feBlend mode="normal" in="SourceGraphic" in2="effect1_dropShadow" result="shape"/>
</filter>
</defs>
</svg>
