<svg width="64" height="64" viewBox="0 0 64 64" fill="none" xmlns="http://www.w3.org/2000/svg">
<g filter="url(#filter0_d)">
<circle cx="32" cy="31" r="12" fill="white"/>
<circle cx="32" cy="31" r="11.5" stroke="#CCCCCC"/>
</g>
<path d="M28.1111 36H35.8889C36.1836 36 36.4662 35.8829 36.6746 35.6746C36.8829 35.4662 37 35.1836 37 34.8889V27.1111C37 26.8164 36.8829 26.5338 36.6746 26.3254C36.4662 26.1171 36.1836 26 35.8889 26H28.1111C27.8164 26 27.5338 26.1171 27.3254 26.3254C27.1171 26.5338 27 26.8164 27 27.1111V34.8889C27 35.1836 27.1171 35.4662 27.3254 35.6746C27.5338 35.8829 27.8164 36 28.1111 36ZM29.7778 32.1111L31.0906 33.4239L33.1111 30.4444L35.8889 34.3333H28.1111L29.7778 32.1111Z" fill="#555555"/>
<defs>
<filter id="filter0_d" x="0" y="0" width="64" height="64" filterUnits="userSpaceOnUse" color-interpolation-filters="sRGB">
<feFlood flood-opacity="0" result="BackgroundImageFix"/>
<feColorMatrix in="SourceAlpha" type="matrix" values="0 0 0 0 0 0 0 0 0 0 0 0 0 0 0 0 0 0 127 0"/>
<feOffset dy="1"/>
<feGaussianBlur stdDeviation="10"/>
<feColorMatrix type="matrix" values="0 0 0 0 0 0 0 0 0 0 0 0 0 0 0 0 0 0 0.1 0"/>
<feBlend mode="normal" in2="BackgroundImageFix" result="effect1_dropShadow"/>
<feBlend mode="normal" in="SourceGraphic" in2="effect1_dropShadow" result="shape"/>
</filter>
</defs>
</svg>
