<svg width="64" height="64" viewBox="0 0 64 64" fill="none" xmlns="http://www.w3.org/2000/svg">
<g filter="url(#filter0_d)">
<circle cx="32" cy="31" r="12" fill="white"/>
<circle cx="32" cy="31" r="11.5" stroke="#CCCCCC"/>
</g>
<g clip-path="url(#clip0)">
<path fill-rule="evenodd" clip-rule="evenodd" d="M32 25.8958H34.9167C35.3034 25.8958 35.6744 26.0495 35.9479 26.323C36.2214 26.5965 36.375 26.9674 36.375 27.3542V34.6458C36.375 35.0326 36.2214 35.4035 35.9479 35.677C35.6744 35.9505 35.3034 36.1042 34.9167 36.1042H29.0833C28.6966 36.1042 28.3256 35.9505 28.0521 35.677C27.7786 35.4035 27.625 35.0326 27.625 34.6458V27.3542C27.625 26.9674 27.7786 26.5965 28.0521 26.323C28.3256 26.0495 28.6966 25.8958 29.0833 25.8958H30.9063V26.625H31.6354V27.3542H30.9063V28.0833H31.6354V28.8125H30.9063V29.5417H31.6354V30.2708H32.7292V29.5417H32V28.8125H32.7292V28.0833H32V27.3542H32.7292V26.625H32V25.8958ZM30.9063 31.3646C30.9063 31.1712 30.9831 30.9857 31.1198 30.849C31.2566 30.7122 31.442 30.6354 31.6354 30.6354H32.3646C32.558 30.6354 32.7434 30.7122 32.8802 30.849C33.0169 30.9857 33.0938 31.1712 33.0938 31.3646V32.0486L33.3854 33.2145C33.4218 33.3604 33.4121 33.5139 33.3578 33.6541C33.3035 33.7943 33.2072 33.9143 33.0821 33.9976L32.404 34.4497C32.2842 34.5295 32.1435 34.5721 31.9996 34.5721C31.8557 34.5721 31.7151 34.5295 31.5953 34.4497L30.9172 33.9976C30.7922 33.9142 30.696 33.7942 30.6419 33.654C30.5877 33.5138 30.5782 33.3603 30.6146 33.2145L30.9063 32.0486V31.3646ZM32.3646 32.0486V31.3646H31.6354V32.0486C31.6354 32.1083 31.6281 32.1678 31.6135 32.2257L31.3219 33.3909L32 33.843L32.6781 33.3909L32.3865 32.2257C32.3719 32.1678 32.3646 32.1083 32.3646 32.0486Z" fill="#555555"/>
</g>
<defs>
<filter id="filter0_d" x="0" y="0" width="64" height="64" filterUnits="userSpaceOnUse" color-interpolation-filters="sRGB">
<feFlood flood-opacity="0" result="BackgroundImageFix"/>
<feColorMatrix in="SourceAlpha" type="matrix" values="0 0 0 0 0 0 0 0 0 0 0 0 0 0 0 0 0 0 127 0"/>
<feOffset dy="1"/>
<feGaussianBlur stdDeviation="10"/>
<feColorMatrix type="matrix" values="0 0 0 0 0 0 0 0 0 0 0 0 0 0 0 0 0 0 0.1 0"/>
<feBlend mode="normal" in2="BackgroundImageFix" result="effect1_dropShadow"/>
<feBlend mode="normal" in="SourceGraphic" in2="effect1_dropShadow" result="shape"/>
</filter>
<clipPath id="clip0">
<rect width="11.6667" height="11.6667" fill="white" transform="translate(26.1667 25.1667)"/>
</clipPath>
</defs>
</svg>
