<svg width="64" height="64" viewBox="0 0 64 64" fill="none" xmlns="http://www.w3.org/2000/svg">
<g filter="url(#filter0_d)">
<circle cx="32" cy="31" r="12" fill="white"/>
<circle cx="32" cy="31" r="11.5" stroke="#CCCCCC"/>
</g>
<path d="M31.9998 32.75C32.9681 32.75 33.744 31.9683 33.744 31L33.7498 27.5C33.7498 26.5317 32.9681 25.75 31.9998 25.75C31.0315 25.75 30.2498 26.5317 30.2498 27.5V31C30.2498 31.9683 31.0315 32.75 31.9998 32.75ZM35.5465 31C35.3015 31 35.0973 31.175 35.0623 31.4142C34.8465 32.9367 33.4756 33.975 31.9998 33.975C30.524 33.975 29.1531 32.9425 28.9373 31.4142C28.9193 31.2987 28.8606 31.1935 28.7718 31.1175C28.683 31.0415 28.57 30.9999 28.4531 31C28.1498 31 27.9165 31.2683 27.9573 31.5658C28.2256 33.2983 29.684 34.6575 31.4165 34.92V36.25C31.4165 36.5708 31.679 36.8333 31.9998 36.8333C32.3206 36.8333 32.5831 36.5708 32.5831 36.25V34.92C34.3098 34.6692 35.774 33.2983 36.0423 31.5658C36.0517 31.4952 36.0459 31.4234 36.0252 31.3552C36.0046 31.287 35.9697 31.224 35.9227 31.1704C35.8758 31.1169 35.8179 31.0739 35.753 31.0445C35.6881 31.0151 35.6177 31 35.5465 31Z" fill="#555555"/>
<defs>
<filter id="filter0_d" x="0" y="0" width="64" height="64" filterUnits="userSpaceOnUse" color-interpolation-filters="sRGB">
<feFlood flood-opacity="0" result="BackgroundImageFix"/>
<feColorMatrix in="SourceAlpha" type="matrix" values="0 0 0 0 0 0 0 0 0 0 0 0 0 0 0 0 0 0 127 0"/>
<feOffset dy="1"/>
<feGaussianBlur stdDeviation="10"/>
<feColorMatrix type="matrix" values="0 0 0 0 0 0 0 0 0 0 0 0 0 0 0 0 0 0 0.1 0"/>
<feBlend mode="normal" in2="BackgroundImageFix" result="effect1_dropShadow"/>
<feBlend mode="normal" in="SourceGraphic" in2="effect1_dropShadow" result="shape"/>
</filter>
</defs>
</svg>
