<svg width="64" height="64" viewBox="0 0 64 64" fill="none" xmlns="http://www.w3.org/2000/svg">
<g filter="url(#filter0_d)">
<circle cx="32" cy="31" r="12" fill="white"/>
<circle cx="32" cy="31" r="11.5" stroke="#CCCCCC"/>
</g>
<path d="M27 26.9965C27.0009 26.8652 27.0535 26.7395 27.1463 26.6466C27.2391 26.5537 27.3647 26.501 27.496 26.5H36.504C36.778 26.5 37 26.7225 37 26.9965V35.0035C36.9991 35.1348 36.9465 35.2605 36.8537 35.3534C36.7609 35.4463 36.6353 35.499 36.504 35.5H27.496C27.3644 35.4999 27.2382 35.4475 27.1452 35.3544C27.0522 35.2613 27 35.1351 27 35.0035V26.9965ZM31.311 29.2075C31.2809 29.1874 31.2459 29.1759 31.2098 29.1741C31.1737 29.1723 31.1377 29.1804 31.1058 29.1974C31.0739 29.2145 31.0472 29.2398 31.0286 29.2708C31.0099 29.3018 31.0001 29.3373 31 29.3735V32.6265C31.0001 32.6627 31.0099 32.6982 31.0286 32.7292C31.0472 32.7602 31.0739 32.7855 31.1058 32.8026C31.1377 32.8196 31.1737 32.8277 31.2098 32.8259C31.2459 32.8241 31.2809 32.8126 31.311 32.7925L33.7505 31.1665C33.7779 31.1482 33.8004 31.1235 33.816 31.0944C33.8316 31.0654 33.8397 31.033 33.8397 31C33.8397 30.967 33.8316 30.9346 33.816 30.9056C33.8004 30.8765 33.7779 30.8518 33.7505 30.8335L31.3105 29.2075H31.311Z" fill="#555555"/>
<defs>
<filter id="filter0_d" x="0" y="0" width="64" height="64" filterUnits="userSpaceOnUse" color-interpolation-filters="sRGB">
<feFlood flood-opacity="0" result="BackgroundImageFix"/>
<feColorMatrix in="SourceAlpha" type="matrix" values="0 0 0 0 0 0 0 0 0 0 0 0 0 0 0 0 0 0 127 0"/>
<feOffset dy="1"/>
<feGaussianBlur stdDeviation="10"/>
<feColorMatrix type="matrix" values="0 0 0 0 0 0 0 0 0 0 0 0 0 0 0 0 0 0 0.1 0"/>
<feBlend mode="normal" in2="BackgroundImageFix" result="effect1_dropShadow"/>
<feBlend mode="normal" in="SourceGraphic" in2="effect1_dropShadow" result="shape"/>
</filter>
</defs>
</svg>
