<svg width="64" height="64" viewBox="0 0 64 64" fill="none" xmlns="http://www.w3.org/2000/svg">
<g filter="url(#filter0_d)">
<circle cx="32" cy="31" r="12" fill="white"/>
<circle cx="32" cy="31" r="11.5" stroke="#CCCCCC"/>
</g>
<path d="M29.6667 35.0833H34.3334C34.6542 35.0833 34.9167 34.8208 34.9167 34.5V26.9167C34.9167 26.5958 34.6542 26.3333 34.3334 26.3333H29.6667C29.3459 26.3333 29.0834 26.5958 29.0834 26.9167V34.5C29.0834 34.8208 29.3459 35.0833 29.6667 35.0833ZM26.75 33.9167H27.9167C28.2375 33.9167 28.5 33.6542 28.5 33.3333V28.0833C28.5 27.7625 28.2375 27.5 27.9167 27.5H26.75C26.4292 27.5 26.1667 27.7625 26.1667 28.0833V33.3333C26.1667 33.6542 26.4292 33.9167 26.75 33.9167ZM35.5 28.0833V33.3333C35.5 33.6542 35.7625 33.9167 36.0834 33.9167H37.25C37.5709 33.9167 37.8334 33.6542 37.8334 33.3333V28.0833C37.8334 27.7625 37.5709 27.5 37.25 27.5H36.0834C35.7625 27.5 35.5 27.7625 35.5 28.0833Z" fill="#555555"/>
<defs>
<filter id="filter0_d" x="0" y="0" width="64" height="64" filterUnits="userSpaceOnUse" color-interpolation-filters="sRGB">
<feFlood flood-opacity="0" result="BackgroundImageFix"/>
<feColorMatrix in="SourceAlpha" type="matrix" values="0 0 0 0 0 0 0 0 0 0 0 0 0 0 0 0 0 0 127 0"/>
<feOffset dy="1"/>
<feGaussianBlur stdDeviation="10"/>
<feColorMatrix type="matrix" values="0 0 0 0 0 0 0 0 0 0 0 0 0 0 0 0 0 0 0.1 0"/>
<feBlend mode="normal" in2="BackgroundImageFix" result="effect1_dropShadow"/>
<feBlend mode="normal" in="SourceGraphic" in2="effect1_dropShadow" result="shape"/>
</filter>
</defs>
</svg>
