<svg width="64" height="64" viewBox="0 0 64 64" fill="none" xmlns="http://www.w3.org/2000/svg">
<g filter="url(#filter0_d)">
<circle cx="32" cy="31" r="12" fill="white"/>
<circle cx="32" cy="31" r="11.5" stroke="#CCCCCC"/>
</g>
<path d="M32.0002 36.8334C35.2167 36.8334 37.8335 34.2166 37.8335 31.0001C37.8335 27.7836 35.2167 25.1667 32.0002 25.1667C28.7837 25.1667 26.1669 27.7836 26.1669 31.0001C26.1669 34.2166 28.7837 36.8334 32.0002 36.8334ZM34.0378 29.2501C34.1541 29.2471 34.2698 29.2674 34.3781 29.3099C34.4865 29.3524 34.5852 29.4161 34.6685 29.4973C34.7518 29.5785 34.818 29.6756 34.8631 29.7828C34.9083 29.89 34.9316 30.0052 34.9315 30.1216C34.9315 30.2379 34.9082 30.3531 34.8629 30.4602C34.8177 30.5674 34.7514 30.6645 34.6681 30.7456C34.5847 30.8268 34.4859 30.8905 34.3776 30.9329C34.2692 30.9752 34.1535 30.9955 34.0372 30.9925C33.81 30.9865 33.5942 30.8921 33.4357 30.7293C33.2771 30.5665 33.1885 30.3482 33.1885 30.121C33.1886 29.8937 33.2774 29.6755 33.4361 29.5128C33.5947 29.3501 33.8106 29.2559 34.0378 29.2501ZM31.5289 33.2861C31.84 33.3485 32.1604 33.3485 32.4715 33.2861C32.6191 33.2558 32.7661 33.2097 32.909 33.1502C33.0455 33.0919 33.1797 33.0196 33.3051 32.9356C33.4265 32.8527 33.5425 32.7571 33.6499 32.6503C33.7566 32.5441 33.8523 32.4281 33.9351 32.305L34.9023 32.9566C34.6508 33.3292 34.3302 33.6502 33.9579 33.9021C33.5785 34.1581 33.1526 34.3373 32.7043 34.4295C32.2395 34.5228 31.7608 34.5226 31.2961 34.4289C30.8477 34.3381 30.4218 34.159 30.0431 33.9021C29.6707 33.6496 29.3498 33.3285 29.0975 32.956L30.0647 32.3044C30.1481 32.4275 30.2438 32.5436 30.3494 32.6486C30.6714 32.9722 31.0817 33.194 31.5289 33.2861ZM29.9585 29.2501C30.0735 29.2501 30.1873 29.2728 30.2935 29.3168C30.3997 29.3608 30.4961 29.4253 30.5774 29.5066C30.6586 29.5879 30.7231 29.6844 30.767 29.7907C30.811 29.8969 30.8336 30.0107 30.8335 30.1256C30.8335 30.2406 30.8108 30.3544 30.7668 30.4606C30.7228 30.5668 30.6583 30.6632 30.577 30.7445C30.4957 30.8257 30.3991 30.8902 30.2929 30.9341C30.1867 30.9781 30.0729 31.0007 29.958 31.0006C29.7258 31.0006 29.5032 30.9083 29.3391 30.7441C29.175 30.5799 29.0829 30.3572 29.083 30.1251C29.083 29.8929 29.1753 29.6703 29.3395 29.5062C29.5037 29.3421 29.7264 29.25 29.9585 29.2501Z" fill="#555555"/>
<defs>
<filter id="filter0_d" x="0" y="0" width="64" height="64" filterUnits="userSpaceOnUse" color-interpolation-filters="sRGB">
<feFlood flood-opacity="0" result="BackgroundImageFix"/>
<feColorMatrix in="SourceAlpha" type="matrix" values="0 0 0 0 0 0 0 0 0 0 0 0 0 0 0 0 0 0 127 0"/>
<feOffset dy="1"/>
<feGaussianBlur stdDeviation="10"/>
<feColorMatrix type="matrix" values="0 0 0 0 0 0 0 0 0 0 0 0 0 0 0 0 0 0 0.1 0"/>
<feBlend mode="normal" in2="BackgroundImageFix" result="effect1_dropShadow"/>
<feBlend mode="normal" in="SourceGraphic" in2="effect1_dropShadow" result="shape"/>
</filter>
</defs>
</svg>
