<svg width="64" height="64" viewBox="0 0 64 64" fill="none" xmlns="http://www.w3.org/2000/svg">
<g filter="url(#filter0_d)">
<circle cx="32" cy="31" r="12" fill="white"/>
<circle cx="32" cy="31" r="11.5" stroke="#CCCCCC"/>
</g>
<g clip-path="url(#clip0)">
<path d="M32.0185 34.2815C32.0538 34.293 32.0773 34.316 32.0891 34.3506C32.1009 34.3852 32.095 34.4197 32.0715 34.4543L30.6067 35.8889C30.3715 36.1193 30.1009 36.3037 29.795 36.4419C29.4891 36.5802 29.1773 36.6609 28.8597 36.6839C28.542 36.707 28.2244 36.6839 27.9067 36.6148C27.5891 36.5456 27.3009 36.4016 27.042 36.1827C26.7244 35.9407 26.4773 35.6469 26.3009 35.3012C26.1244 34.9555 26.0303 34.6098 26.0185 34.2642C26.0067 33.9185 26.0597 33.567 26.1773 33.2098C26.295 32.8526 26.495 32.5415 26.7773 32.2765L29.0538 30.0469C29.4185 29.6897 29.842 29.4247 30.3244 29.2518C30.8067 29.079 31.3009 29.0329 31.8067 29.1136C32.2538 29.1827 32.6067 29.3094 32.8656 29.4938C33.1244 29.6782 33.3303 29.8913 33.4832 30.1333C33.5067 30.1909 33.5038 30.2341 33.4744 30.2629C33.445 30.2917 33.4126 30.3177 33.3773 30.3407C33.342 30.3638 33.3009 30.3983 33.2538 30.4444L33.1303 30.5654C33.0126 30.6922 32.8715 30.7555 32.7067 30.7555C32.542 30.7555 32.392 30.6893 32.2567 30.5568C32.1215 30.4242 31.9715 30.3234 31.8067 30.2543C31.642 30.1852 31.4597 30.1563 31.2597 30.1679C31.0597 30.1794 30.8832 30.2082 30.7303 30.2543C30.5773 30.3004 30.4185 30.4041 30.2538 30.5654L27.642 33.1234C27.4891 33.2732 27.3773 33.4461 27.3067 33.6419C27.2362 33.8378 27.2126 34.0337 27.2362 34.2296C27.2597 34.4255 27.3185 34.6214 27.4126 34.8173C27.5067 35.0131 27.6597 35.1687 27.8715 35.2839C28.1656 35.4798 28.4832 35.5489 28.8244 35.4913C29.1656 35.4337 29.4538 35.2954 29.6891 35.0765L30.8185 33.9876C30.842 33.9531 30.8773 33.9473 30.9244 33.9703C31.2773 34.1201 31.642 34.2238 32.0185 34.2815ZM36.9244 25.5358C37.242 25.7777 37.4891 26.0658 37.6656 26.4C37.842 26.7341 37.942 27.0798 37.9656 27.437C37.9891 27.7942 37.9362 28.1514 37.8067 28.5086C37.6773 28.8658 37.4715 29.1769 37.1891 29.4419L34.9126 31.6716C34.5479 32.0288 34.1244 32.288 33.642 32.4494C33.1597 32.6107 32.6597 32.6568 32.142 32.5876C31.695 32.53 31.3479 32.4033 31.1009 32.2074C30.8538 32.0115 30.6479 31.7983 30.4832 31.5679C30.4597 31.5218 30.4656 31.4815 30.5009 31.4469L30.8185 31.1358C30.9479 31.0205 31.095 30.9629 31.2597 30.9629C31.4244 30.9629 31.5656 31.0205 31.6832 31.1358C31.8244 31.274 31.9832 31.3777 32.1597 31.4469C32.3362 31.516 32.5185 31.5506 32.7067 31.5506C32.895 31.5506 33.0773 31.516 33.2538 31.4469C33.4303 31.3777 33.5832 31.274 33.7126 31.1358L36.3244 28.595C36.4773 28.4452 36.5891 28.2666 36.6597 28.0592C36.7303 27.8518 36.7538 27.6502 36.7303 27.4543C36.7067 27.2584 36.642 27.0683 36.5362 26.8839C36.4303 26.6996 36.2773 26.544 36.0773 26.4173C35.795 26.2329 35.4832 26.1638 35.142 26.2098C34.8009 26.2559 34.5067 26.4 34.2597 26.6419L33.1479 27.7308C33.1126 27.7654 33.0773 27.7712 33.042 27.7481C32.7126 27.6098 32.3479 27.5004 31.9479 27.4197C31.9009 27.4197 31.8773 27.3967 31.8773 27.3506C31.8773 27.3045 31.8832 27.2757 31.895 27.2642L33.3597 25.8296C33.595 25.5991 33.8656 25.4148 34.1715 25.2765C34.4773 25.1382 34.7832 25.0518 35.0891 25.0173C35.395 24.9827 35.7126 25.0115 36.042 25.1037C36.3715 25.1959 36.6656 25.3399 36.9244 25.5358Z" fill="#555555"/>
</g>
<defs>
<filter id="filter0_d" x="0" y="0" width="64" height="64" filterUnits="userSpaceOnUse" color-interpolation-filters="sRGB">
<feFlood flood-opacity="0" result="BackgroundImageFix"/>
<feColorMatrix in="SourceAlpha" type="matrix" values="0 0 0 0 0 0 0 0 0 0 0 0 0 0 0 0 0 0 127 0"/>
<feOffset dy="1"/>
<feGaussianBlur stdDeviation="10"/>
<feColorMatrix type="matrix" values="0 0 0 0 0 0 0 0 0 0 0 0 0 0 0 0 0 0 0.1 0"/>
<feBlend mode="normal" in2="BackgroundImageFix" result="effect1_dropShadow"/>
<feBlend mode="normal" in="SourceGraphic" in2="effect1_dropShadow" result="shape"/>
</filter>
<clipPath id="clip0">
<rect width="14" height="14" fill="white" transform="translate(25 24)"/>
</clipPath>
</defs>
</svg>
