<svg width="64" height="64" viewBox="0 0 64 64" fill="none" xmlns="http://www.w3.org/2000/svg">
<g filter="url(#filter0_d)">
<circle cx="32" cy="31" r="12" fill="white"/>
<circle cx="32" cy="31" r="11.5" stroke="#CCCCCC"/>
</g>
<path d="M26.3879 28.8734L29.9852 28.3716L31.5933 25.2421C31.6373 25.1564 31.7095 25.087 31.7988 25.0449C32.0226 24.9388 32.2947 25.0272 32.4066 25.2421L34.0147 28.3716L37.6121 28.8734C37.7113 28.887 37.8019 28.9319 37.8714 28.9999C37.9553 29.0827 38.0016 29.1941 38 29.3096C37.9984 29.4252 37.9491 29.5354 37.8629 29.616L35.2601 32.0518L35.875 35.4914C35.8895 35.5714 35.8802 35.6537 35.8484 35.7289C35.8166 35.8042 35.7634 35.8693 35.695 35.9171C35.6266 35.9648 35.5456 35.9931 35.4612 35.9989C35.3768 36.0047 35.2924 35.9876 35.2176 35.9497L32 34.3258L28.7823 35.9497C28.6945 35.9946 28.5925 36.0096 28.4947 35.9932C28.2482 35.9524 28.0824 35.728 28.1249 35.4914L28.7398 32.0518L26.1371 29.616C26.0662 29.5494 26.0195 29.4623 26.0053 29.3671C25.967 29.1291 26.1399 28.9088 26.3879 28.8734Z" fill="#555555"/>
<defs>
<filter id="filter0_d" x="0" y="0" width="64" height="64" filterUnits="userSpaceOnUse" color-interpolation-filters="sRGB">
<feFlood flood-opacity="0" result="BackgroundImageFix"/>
<feColorMatrix in="SourceAlpha" type="matrix" values="0 0 0 0 0 0 0 0 0 0 0 0 0 0 0 0 0 0 127 0"/>
<feOffset dy="1"/>
<feGaussianBlur stdDeviation="10"/>
<feColorMatrix type="matrix" values="0 0 0 0 0 0 0 0 0 0 0 0 0 0 0 0 0 0 0.1 0"/>
<feBlend mode="normal" in2="BackgroundImageFix" result="effect1_dropShadow"/>
<feBlend mode="normal" in="SourceGraphic" in2="effect1_dropShadow" result="shape"/>
</filter>
</defs>
</svg>
