<svg width="64" height="64" viewBox="0 0 64 64" fill="none" xmlns="http://www.w3.org/2000/svg">
<g filter="url(#filter0_d)">
<circle cx="32" cy="31" r="12" fill="white"/>
<circle cx="32" cy="31" r="11.5" stroke="#CCCCCC"/>
</g>
<g clip-path="url(#clip0)">
<path d="M32.5139 37.7377C36.2977 32.3895 37 31.8406 37 29.875C37 27.1826 34.7614 25 32 25C29.2386 25 27 27.1826 27 29.875C27 31.8406 27.7023 32.3895 31.4861 37.7377C31.7345 38.0874 32.2656 38.0874 32.5139 37.7377ZM32 31.9062C30.8494 31.9062 29.9167 30.9968 29.9167 29.875C29.9167 28.7532 30.8494 27.8438 32 27.8438C33.1506 27.8438 34.0833 28.7532 34.0833 29.875C34.0833 30.9968 33.1506 31.9062 32 31.9062Z" fill="#555555"/>
</g>
<defs>
<filter id="filter0_d" x="0" y="0" width="64" height="64" filterUnits="userSpaceOnUse" color-interpolation-filters="sRGB">
<feFlood flood-opacity="0" result="BackgroundImageFix"/>
<feColorMatrix in="SourceAlpha" type="matrix" values="0 0 0 0 0 0 0 0 0 0 0 0 0 0 0 0 0 0 127 0"/>
<feOffset dy="1"/>
<feGaussianBlur stdDeviation="10"/>
<feColorMatrix type="matrix" values="0 0 0 0 0 0 0 0 0 0 0 0 0 0 0 0 0 0 0.1 0"/>
<feBlend mode="normal" in2="BackgroundImageFix" result="effect1_dropShadow"/>
<feBlend mode="normal" in="SourceGraphic" in2="effect1_dropShadow" result="shape"/>
</filter>
<clipPath id="clip0">
<rect width="10" height="13" fill="white" transform="matrix(-1 0 0 1 37 25)"/>
</clipPath>
</defs>
</svg>
