<svg width="64" height="64" viewBox="0 0 64 64" fill="none" xmlns="http://www.w3.org/2000/svg">
<g filter="url(#filter0_d)">
<circle cx="32" cy="31" r="12" fill="white"/>
<circle cx="32" cy="31" r="11.5" stroke="#CCCCCC"/>
</g>
<path d="M36.8 26H27.2C26.54 26 26.006 26.54 26.006 27.2L26 38L28.4 35.6H36.8C37.46 35.6 38 35.06 38 34.4V27.2C38 26.54 37.46 26 36.8 26ZM36.8 34.4H27.902L27.548 34.754L27.2 35.102V27.2H36.8V34.4ZM28.4 32H29.6V33.2H28.4V32ZM28.4 30.2H29.6V31.4H28.4V30.2ZM28.4 28.4H29.6V29.6H28.4V28.4ZM30.8 32H33.8V33.2H30.8V32ZM30.8 30.2H35.6V31.4H30.8V30.2ZM30.8 28.4H35.6V29.6H30.8V28.4Z" fill="#555555"/>
<defs>
<filter id="filter0_d" x="0" y="0" width="64" height="64" filterUnits="userSpaceOnUse" color-interpolation-filters="sRGB">
<feFlood flood-opacity="0" result="BackgroundImageFix"/>
<feColorMatrix in="SourceAlpha" type="matrix" values="0 0 0 0 0 0 0 0 0 0 0 0 0 0 0 0 0 0 127 0"/>
<feOffset dy="1"/>
<feGaussianBlur stdDeviation="10"/>
<feColorMatrix type="matrix" values="0 0 0 0 0 0 0 0 0 0 0 0 0 0 0 0 0 0 0.1 0"/>
<feBlend mode="normal" in2="BackgroundImageFix" result="effect1_dropShadow"/>
<feBlend mode="normal" in="SourceGraphic" in2="effect1_dropShadow" result="shape"/>
</filter>
</defs>
</svg>
