<svg width="16" height="17" viewBox="0 0 16 17" fill="none" xmlns="http://www.w3.org/2000/svg">
<path d="M8.02362 13.2592C8.07068 13.2756 8.10205 13.3085 8.11774 13.3579C8.13343 13.4073 8.12558 13.4567 8.09421 13.5061L6.14127 15.5555C5.82755 15.8847 5.46676 16.1481 5.05892 16.3456C4.65107 16.5431 4.23539 16.6583 3.81186 16.6913C3.38833 16.7242 2.9648 16.6913 2.54127 16.5925C2.11774 16.4937 1.73343 16.288 1.38833 15.9752C0.9648 15.6295 0.635388 15.2098 0.400094 14.716C0.1648 14.2221 0.0393097 13.7283 0.0236234 13.2345C0.00793714 12.7406 0.0785254 12.2386 0.235388 11.7283C0.392251 11.218 0.658918 10.7736 1.03539 10.395L4.07068 7.20978C4.55696 6.69949 5.12166 6.32089 5.7648 6.07398C6.40794 5.82706 7.06676 5.76122 7.74127 5.87645C8.33735 5.97521 8.80794 6.15628 9.15304 6.41966C9.49813 6.68303 9.77264 6.98756 9.97656 7.33324C10.0079 7.41554 10.004 7.47727 9.9648 7.51842C9.92558 7.55958 9.88245 7.59661 9.83539 7.62953C9.78833 7.66246 9.73343 7.71184 9.67068 7.77768L9.50598 7.95052C9.34911 8.13159 9.16088 8.22213 8.94127 8.22213C8.72166 8.22213 8.52166 8.12748 8.34127 7.93818C8.16088 7.74888 7.96088 7.60484 7.74127 7.50608C7.52166 7.40731 7.27853 7.36616 7.01186 7.38262C6.74519 7.39908 6.5099 7.44023 6.30598 7.50608C6.10206 7.57192 5.89029 7.72007 5.67068 7.95052L2.18833 11.6048C1.98441 11.8188 1.83539 12.0657 1.74127 12.3456C1.64715 12.6254 1.61578 12.9053 1.64715 13.1851C1.67853 13.4649 1.75696 13.7448 1.88245 14.0246C2.00794 14.3044 2.21186 14.5267 2.49421 14.6913C2.88637 14.9711 3.3099 15.0699 3.7648 14.9876C4.2197 14.9053 4.60402 14.7077 4.91774 14.395L6.42362 12.8394C6.455 12.79 6.50206 12.7818 6.5648 12.8147C7.03539 13.0287 7.52166 13.1769 8.02362 13.2592ZM14.5648 0.765337C14.9883 1.11102 15.3177 1.52254 15.553 1.99991C15.7883 2.47727 15.9217 2.9711 15.953 3.48139C15.9844 3.99167 15.9138 4.50196 15.7413 5.01225C15.5687 5.52254 15.2942 5.96698 14.9177 6.34558L11.8824 9.53077C11.3962 10.0411 10.8315 10.4114 10.1883 10.6419C9.54519 10.8723 8.87853 10.9382 8.18833 10.8394C7.59225 10.7571 7.12951 10.576 6.80009 10.2962C6.47068 10.0164 6.19617 9.71184 5.97656 9.38262C5.94519 9.31678 5.95304 9.25916 6.00009 9.20978L6.42362 8.76534C6.59617 8.60073 6.79225 8.51842 7.01186 8.51842C7.23147 8.51842 7.4197 8.60073 7.57656 8.76534C7.7648 8.96287 7.97656 9.11102 8.21186 9.20978C8.44715 9.30855 8.69029 9.35793 8.94127 9.35793C9.19225 9.35793 9.43539 9.30855 9.67068 9.20978C9.90598 9.11102 10.1099 8.96287 10.2824 8.76534L13.7648 5.13571C13.9687 4.92172 14.1177 4.66657 14.2119 4.37028C14.306 4.07398 14.3373 3.78591 14.306 3.50608C14.2746 3.22624 14.1883 2.95464 14.0472 2.69126C13.906 2.42789 13.7021 2.20567 13.4354 2.0246C13.0589 1.76122 12.6432 1.66246 12.1883 1.7283C11.7334 1.79414 11.3413 1.99991 11.0119 2.34558L9.52951 3.90114C9.48245 3.95052 9.43539 3.95875 9.38833 3.92583C8.94911 3.7283 8.46284 3.57192 7.92951 3.45669C7.86676 3.45669 7.83539 3.42377 7.83539 3.35793C7.83539 3.29209 7.84323 3.25093 7.85892 3.23447L9.81186 1.18509C10.1256 0.855872 10.4864 0.592498 10.8942 0.394967C11.3021 0.197436 11.7099 0.0739793 12.1177 0.0245966C12.5256 -0.0247862 12.9491 0.0163661 13.3883 0.148053C13.8275 0.279741 14.2197 0.485502 14.5648 0.765337Z" fill="black"/>
</svg>
