<svg width="16" height="21" viewBox="0 0 16 21" fill="none" xmlns="http://www.w3.org/2000/svg">
<path d="M8.00051 13.25C9.79884 13.25 11.2397 11.7983 11.2397 10L11.2505 3.5C11.2505 1.70167 9.79884 0.25 8.00051 0.25C6.20218 0.25 4.75051 1.70167 4.75051 3.5V10C4.75051 11.7983 6.20218 13.25 8.00051 13.25ZM14.5872 10C14.1322 10 13.753 10.325 13.688 10.7692C13.2872 13.5967 10.7413 15.525 8.00051 15.525C5.25968 15.525 2.71384 13.6075 2.31301 10.7692C2.27964 10.5547 2.17065 10.3593 2.00573 10.2182C1.84081 10.0772 1.63086 9.99975 1.41384 10C0.850509 10 0.417176 10.4983 0.493009 11.0508C0.991343 14.2683 3.69968 16.7925 6.91717 17.28V19.75C6.91717 20.3458 7.40468 20.8333 8.00051 20.8333C8.59634 20.8333 9.08384 20.3458 9.08384 19.75V17.28C12.2905 16.8142 15.0097 14.2683 15.508 11.0508C15.5255 10.9197 15.5147 10.7863 15.4764 10.6597C15.4381 10.533 15.3732 10.416 15.286 10.3165C15.1988 10.217 15.0913 10.1373 14.9708 10.0827C14.8503 10.0281 14.7195 9.99993 14.5872 10Z" fill="#555555"/>
</svg>

